<svg version="1.1" xmlns="http://www.w3.org/2000/svg" viewBox="0 0 236.79998779296875 204" width="236.79998779296875" height="204" class="excalidraw-svg">
  <!-- svg-source:excalidraw -->
  
  <defs>
    <style class="style-fonts">
      
    </style>
    
  </defs>
  <rect x="0" y="0" width="236.79998779296875" height="204" fill="black"></rect><g transform="translate(26 35.600006103515625) rotate(0 18.4000244140625 16.399993896484375)" stroke="none"><path fill="white" d="M 1.32,0 Q 1.32,0 1.47,8.50 1.62,17.01 1.87,21.28 2.11,25.54 2.24,29.23 2.37,32.92 2.67,36.74 2.98,40.56 3.57,44.43 4.16,48.30 4.67,51.08 5.17,53.86 5.96,54.35 6.75,54.84 6.84,55.07 6.94,55.29 6.98,55.54 7.02,55.78 7.00,56.02 6.99,56.27 6.91,56.50 6.83,56.74 6.70,56.95 6.57,57.15 6.39,57.33 6.22,57.50 6.00,57.62 5.79,57.74 5.56,57.81 5.32,57.88 5.07,57.89 4.83,57.91 4.59,57.86 4.35,57.81 4.12,57.70 3.90,57.60 3.71,57.44 3.52,57.29 3.37,57.09 3.22,56.90 2.97,54.61 2.72,52.33 2.20,49.66 1.68,46.99 0.37,44.22 -0.94,41.46 -3.05,38.26 -5.17,35.07 -7.43,32.10 -9.69,29.14 -11.32,27.20 -12.95,25.27 -14.08,23.99 -15.22,22.70 -15.83,22.02 -16.45,21.34 -16.64,21.15 -16.84,20.96 -16.98,20.73 -17.13,20.50 -17.21,20.24 -17.30,19.98 -17.32,19.71 -17.34,19.44 -17.29,19.17 -17.25,18.90 -17.14,18.65 -17.03,18.40 -16.87,18.18 -16.70,17.96 -16.49,17.79 -16.28,17.62 -16.03,17.51 -15.78,17.39 -15.51,17.34 -15.25,17.29 -14.97,17.30 -14.70,17.31 -14.44,17.39 -14.18,17.47 -13.94,17.60 -13.71,17.74 -10.40,16.41 -7.10,15.07 -3.56,13.40 -0.01,11.72 5.37,8.69 10.77,5.66 13.23,3.96 15.70,2.27 17.29,0.79 18.89,-0.68 19.13,-2.07 19.38,-3.46 19.32,-5.53 19.26,-7.61 18.35,-10.11 17.45,-12.62 16.40,-14.84 15.35,-17.06 14.08,-18.77 12.82,-20.47 11.82,-21.28 10.83,-22.08 11.06,-20.17 11.29,-18.25 12.09,-14.31 12.90,-10.37 14.18,-4.30 15.46,1.76 16.49,8.07 17.53,14.38 19.05,22.53 20.58,30.68 21.39,35.05 22.21,39.42 22.80,42.43 23.38,45.43 23.86,47.34 24.33,49.25 24.54,50.31 24.75,51.38 24.78,51.71 24.82,52.03 24.78,52.36 24.74,52.68 24.62,52.99 24.50,53.30 24.31,53.57 24.12,53.83 23.88,54.05 23.63,54.27 23.34,54.42 23.05,54.57 22.73,54.64 22.41,54.72 22.08,54.72 21.75,54.72 21.43,54.63 21.12,54.55 20.83,54.40 20.54,54.25 20.29,54.03 20.05,53.81 19.86,53.54 19.68,53.26 19.56,52.96 19.45,52.65 19.10,50.45 18.75,48.24 18.53,44.67 18.31,41.10 18.21,36.86 18.11,32.63 18.55,29.47 18.98,26.31 19.80,24.19 20.62,22.08 21.27,21.72 21.92,21.35 22.08,21.06 22.23,20.76 22.45,20.51 22.67,20.26 22.95,20.07 23.22,19.88 23.53,19.76 23.84,19.64 24.17,19.60 24.51,19.56 24.84,19.60 25.17,19.64 25.48,19.76 25.79,19.87 26.07,20.06 26.34,20.25 26.56,20.50 26.79,20.75 26.94,21.04 27.10,21.34 27.18,21.66 27.26,21.99 27.26,22.32 27.26,22.65 27.18,22.98 27.10,23.30 29.06,27.45 31.02,31.60 32.41,34.81 33.80,38.02 35.79,39.99 37.78,41.96 38.63,42.77 39.48,43.58 40.02,42.64 40.56,41.70 41.28,39.94 42.00,38.18 42.43,35.32 42.86,32.47 42.94,29.65 43.01,26.83 43.10,24.17 43.18,21.52 43.00,19.80 42.81,18.08 42.75,17.54 42.68,16.99 42.68,16.81 42.68,16.63 42.72,16.46 42.76,16.29 42.84,16.13 42.92,15.97 43.04,15.84 43.16,15.70 43.30,15.60 43.45,15.50 43.61,15.43 43.78,15.37 43.95,15.34 44.13,15.32 44.31,15.34 44.48,15.36 44.65,15.42 44.82,15.48 44.96,15.58 45.11,15.68 45.23,15.81 45.35,15.94 45.44,16.10 45.52,16.25 45.57,16.43 45.61,16.60 45.79,17.98 45.96,19.36 46.48,21.73 47.00,24.10 47.68,26.71 48.36,29.33 49.27,31.71 50.19,34.09 50.65,32.84 51.11,31.60 50.74,29.31 50.37,27.03 49.54,23.51 48.70,20.00 47.67,16.93 46.64,13.86 45.75,11.65 44.86,9.44 44.07,8.13 43.29,6.83 41.96,6.09 40.63,5.36 40.45,5.24 40.27,5.12 40.14,4.96 40.01,4.79 39.94,4.59 39.87,4.39 39.86,4.18 39.86,3.97 39.92,3.76 39.99,3.56 40.11,3.39 40.24,3.22 40.41,3.10 40.59,2.97 40.79,2.91 40.99,2.85 41.21,2.86 41.42,2.87 41.62,2.94 41.82,3.02 41.98,3.15 42.14,3.29 42.26,3.47 42.37,3.65 42.42,3.86 42.47,4.06 42.45,4.27 42.43,4.49 42.34,4.68 42.26,4.87 42.11,5.03 41.97,5.19 41.78,5.29 41.60,5.39 41.39,5.43 41.18,5.47 40.97,5.44 40.76,5.41 40.57,5.31 40.38,5.21 40.23,5.06 40.08,4.91 39.99,4.72 39.90,4.53 39.87,4.32 39.85,4.11 39.89,3.90 39.93,3.69 40.04,3.51 40.14,3.32 40.30,3.18 40.46,3.04 40.66,2.96 40.85,2.88 41.07,2.86 41.28,2.85 41.48,2.90 41.69,2.95 41.69,2.95 41.69,2.95 43.64,4.15 45.60,5.35 46.51,6.88 47.41,8.40 48.34,10.69 49.26,12.98 50.33,16.17 51.40,19.36 52.26,22.98 53.12,26.61 53.51,29.23 53.89,31.85 52.68,34.68 51.47,37.50 49.58,36.40 47.69,35.30 46.64,32.68 45.59,30.05 44.89,27.39 44.19,24.72 43.64,22.23 43.08,19.75 42.88,18.37 42.69,16.99 42.68,16.81 42.68,16.63 42.72,16.46 42.76,16.29 42.84,16.13 42.92,15.97 43.04,15.84 43.16,15.70 43.30,15.60 43.45,15.50 43.61,15.43 43.78,15.37 43.95,15.34 44.13,15.32 44.31,15.34 44.48,15.36 44.65,15.42 44.82,15.48 44.96,15.58 45.11,15.68 45.23,15.81 45.35,15.94 45.44,16.10 45.52,16.25 45.57,16.43 45.61,16.60 45.75,17.13 45.90,17.67 46.20,19.57 46.50,21.48 46.65,24.11 46.79,26.74 47.01,29.85 47.24,32.97 46.93,36.50 46.62,40.03 45.60,42.49 44.58,44.94 42.97,46.44 41.37,47.94 39.20,47.91 37.03,47.88 35.53,46.72 34.03,45.55 31.57,42.87 29.10,40.19 27.59,36.79 26.08,33.38 24.85,30.06 23.62,26.74 22.77,24.04 21.92,21.35 22.08,21.06 22.23,20.76 22.45,20.51 22.67,20.26 22.95,20.07 23.22,19.88 23.53,19.76 23.84,19.64 24.17,19.60 24.50,19.56 24.84,19.60 25.17,19.64 25.48,19.76 25.79,19.87 26.07,20.06 26.34,20.25 26.56,20.50 26.79,20.75 26.94,21.04 27.10,21.34 27.18,21.66 27.26,21.99 27.26,22.32 27.26,22.65 27.18,22.98 27.10,23.30 26.29,23.93 25.48,24.55 25.01,25.85 24.54,27.14 24.12,29.84 23.70,32.54 23.76,36.67 23.81,40.81 23.95,43.95 24.10,47.08 24.42,49.23 24.75,51.38 24.78,51.71 24.82,52.03 24.78,52.36 24.74,52.68 24.62,52.99 24.50,53.30 24.31,53.57 24.12,53.83 23.88,54.05 23.63,54.27 23.34,54.42 23.05,54.57 22.73,54.64 22.41,54.72 22.08,54.72 21.75,54.72 21.43,54.64 21.12,54.55 20.83,54.40 20.54,54.25 20.29,54.03 20.05,53.81 19.86,53.54 19.68,53.26 19.57,52.96 19.45,52.65 19.26,51.58 19.06,50.51 18.59,48.47 18.12,46.43 17.56,43.40 17.01,40.37 16.22,35.95 15.44,31.52 14.27,23.31 13.10,15.09 12.14,8.87 11.18,2.66 9.92,-3.42 8.66,-9.50 7.82,-13.60 6.98,-17.70 6.84,-20.67 6.69,-23.65 8.28,-25.10 9.86,-26.55 11.80,-26.28 13.73,-26.01 15.29,-24.72 16.85,-23.42 18.35,-21.28 19.84,-19.14 20.96,-16.63 22.07,-14.12 23.01,-10.90 23.95,-7.69 23.90,-4.97 23.86,-2.24 23.05,0.07 22.25,2.40 20.29,4.25 18.32,6.09 15.67,7.90 13.02,9.71 7.45,12.75 1.89,15.79 -1.95,17.58 -5.79,19.37 -8.63,20.24 -11.46,21.10 -13.96,21.22 -16.45,21.34 -16.64,21.15 -16.84,20.96 -16.98,20.73 -17.13,20.50 -17.21,20.24 -17.30,19.98 -17.32,19.71 -17.34,19.44 -17.29,19.17 -17.25,18.90 -17.14,18.65 -17.03,18.40 -16.87,18.18 -16.70,17.96 -16.49,17.79 -16.28,17.62 -16.03,17.51 -15.78,17.39 -15.51,17.34 -15.25,17.29 -14.97,17.30 -14.70,17.31 -14.44,17.39 -14.18,17.47 -13.94,17.60 -13.71,17.74 -12.71,18.64 -11.71,19.54 -10.50,20.86 -9.30,22.18 -7.59,24.21 -5.88,26.24 -3.52,29.35 -1.16,32.47 1.09,36.00 3.34,39.54 4.74,42.86 6.14,46.19 6.58,49.19 7.03,52.19 6.89,53.52 6.75,54.84 6.84,55.07 6.94,55.29 6.98,55.54 7.02,55.78 7.00,56.02 6.99,56.27 6.91,56.50 6.83,56.74 6.70,56.95 6.57,57.15 6.39,57.33 6.22,57.50 6.00,57.62 5.79,57.74 5.56,57.81 5.32,57.88 5.07,57.89 4.83,57.91 4.59,57.86 4.35,57.81 4.12,57.70 3.90,57.60 3.71,57.44 3.52,57.29 3.37,57.09 3.22,56.90 3.04,56.96 2.86,57.03 2.14,55.81 1.42,54.58 0.97,51.71 0.52,48.84 -0.02,44.83 -0.58,40.82 -0.82,36.91 -1.05,33.01 -1.12,29.37 -1.19,25.72 -1.41,21.37 -1.62,17.02 -1.47,8.51 -1.32,0 -1.30,-0.15 -1.28,-0.31 -1.22,-0.46 -1.17,-0.61 -1.08,-0.74 -0.99,-0.87 -0.87,-0.98 -0.75,-1.09 -0.61,-1.16 -0.46,-1.23 -0.31,-1.27 -0.15,-1.31 0.00,-1.31 0.15,-1.31 0.31,-1.27 0.46,-1.23 0.61,-1.16 0.75,-1.08 0.87,-0.98 0.99,-0.87 1.08,-0.74 1.17,-0.61 1.22,-0.46 1.28,-0.31 1.30,-0.15 1.32,0.00 1.32,0.00 L 1.32,0 Z"></path></g><g transform="translate(79.60003662109375 31.600006103515625) rotate(0 11.199981689453125 16.79998779296875)" stroke="none"><path fill="white" d="M -0.59,-1.18 Q -0.59,-1.18 1.70,-2.33 4.00,-3.48 5.52,-4.00 7.04,-4.53 8.10,-4.72 9.15,-4.92 10.23,-4.24 11.31,-3.57 11.50,-1.95 11.69,-0.34 11.21,1.54 10.74,3.42 9.58,5.66 8.41,7.90 7.26,10.38 6.11,12.85 5.17,14.84 4.22,16.83 4.06,17.92 3.90,19.01 3.81,19.15 3.72,19.29 3.60,19.41 3.48,19.52 3.34,19.60 3.19,19.69 3.03,19.73 2.87,19.78 2.70,19.78 2.54,19.79 2.37,19.76 2.21,19.72 2.06,19.65 1.91,19.58 1.78,19.47 1.65,19.36 1.55,19.23 1.45,19.10 1.38,18.94 1.32,18.79 1.29,18.62 1.27,18.46 1.28,18.29 1.30,18.12 1.35,17.97 1.40,17.81 2.86,17.30 4.31,16.80 6.00,16.08 7.70,15.36 10.09,14.32 12.47,13.29 15.32,12.75 18.16,12.20 20.02,13.91 21.88,15.61 22.43,17.15 22.99,18.69 22.47,21.25 21.95,23.81 21.26,26.54 20.58,29.26 19.81,31.63 19.03,34.01 18.25,35.59 17.47,37.17 17.38,37.36 17.29,37.56 17.15,37.71 17.00,37.87 16.82,37.97 16.63,38.07 16.42,38.11 16.21,38.15 16.00,38.12 15.79,38.08 15.60,37.99 15.41,37.89 15.27,37.74 15.12,37.58 15.03,37.39 14.93,37.20 14.91,36.99 14.88,36.78 14.93,36.57 14.97,36.36 15.08,36.18 15.18,36.00 15.34,35.86 15.50,35.72 15.70,35.64 15.90,35.55 16.11,35.54 16.32,35.53 16.53,35.58 16.73,35.64 16.91,35.75 17.09,35.87 17.22,36.04 17.35,36.20 17.42,36.40 17.49,36.61 17.49,36.82 17.49,37.03 17.43,37.23 17.36,37.43 17.24,37.61 17.11,37.78 16.94,37.90 16.76,38.02 16.56,38.08 16.35,38.14 16.14,38.13 15.93,38.12 15.73,38.04 15.53,37.97 15.37,37.83 15.21,37.70 15.09,37.52 14.98,37.34 14.93,37.13 14.89,36.92 14.91,36.71 14.93,36.50 14.93,36.50 14.93,36.50 15.05,34.63 15.18,32.75 15.91,30.51 16.64,28.27 17.34,25.54 18.03,22.80 18.41,20.48 18.80,18.16 17.87,16.73 16.95,15.30 15.42,16.06 13.88,16.81 11.38,17.74 8.87,18.68 6.39,18.84 3.90,19.01 3.81,19.15 3.72,19.29 3.60,19.41 3.48,19.52 3.34,19.60 3.19,19.69 3.03,19.73 2.87,19.78 2.70,19.78 2.54,19.79 2.37,19.76 2.21,19.72 2.06,19.65 1.91,19.58 1.78,19.47 1.65,19.36 1.55,19.23 1.45,19.10 1.38,18.94 1.32,18.79 1.29,18.62 1.27,18.46 1.28,18.29 1.30,18.12 1.35,17.97 1.40,17.81 1.60,16.75 1.79,15.70 2.75,13.72 3.71,11.73 4.89,9.20 6.07,6.66 7.13,4.70 8.19,2.73 8.04,0.35 7.90,-2.02 6.54,-1.56 5.19,-1.11 2.89,0.03 0.59,1.18 0.44,1.23 0.29,1.29 0.13,1.30 -0.02,1.32 -0.18,1.30 -0.34,1.27 -0.49,1.21 -0.63,1.16 -0.76,1.06 -0.89,0.97 -1.00,0.85 -1.10,0.73 -1.17,0.58 -1.24,0.44 -1.28,0.28 -1.31,0.13 -1.31,-0.02 -1.31,-0.18 -1.27,-0.33 -1.22,-0.49 -1.15,-0.63 -1.07,-0.77 -0.96,-0.89 -0.85,-1.00 -0.72,-1.09 -0.59,-1.18 -0.59,-1.18 L -0.59,-1.18 Z"></path></g><g transform="translate(128.4000244140625 33.199981689453125) rotate(0 2.800018310546875 9.600006103515625)" stroke="none"><path fill="white" d="M 1.87,-0.46 Q 1.87,-0.46 2.23,1.39 2.58,3.26 2.98,5.22 3.38,7.18 4.03,9.32 4.69,11.46 5.53,14.46 6.37,17.45 6.41,17.66 6.45,17.87 6.42,18.08 6.38,18.29 6.29,18.48 6.19,18.67 6.04,18.81 5.89,18.96 5.69,19.05 5.50,19.15 5.29,19.17 5.08,19.20 4.87,19.15 4.66,19.11 4.48,19.00 4.30,18.90 4.16,18.74 4.02,18.58 3.94,18.38 3.86,18.18 3.84,17.97 3.83,17.76 3.88,17.55 3.94,17.35 4.05,17.17 4.17,16.99 4.34,16.86 4.51,16.73 4.71,16.66 4.91,16.59 5.12,16.59 5.33,16.59 5.53,16.65 5.74,16.72 5.91,16.84 6.08,16.97 6.20,17.14 6.32,17.32 6.38,17.52 6.44,17.73 6.43,17.94 6.42,18.15 6.34,18.35 6.27,18.55 6.13,18.71 6.00,18.88 5.82,18.99 5.64,19.10 5.43,19.15 5.22,19.20 5.01,19.17 4.80,19.15 4.61,19.07 4.41,18.98 4.26,18.84 4.10,18.69 4.00,18.51 3.90,18.32 3.90,18.32 3.90,18.32 2.65,15.37 1.41,12.42 0.78,10.16 0.15,7.90 -0.29,5.99 -0.74,4.09 -1.31,2.28 -1.87,0.46 -1.90,0.23 -1.93,0.00 -1.90,-0.22 -1.87,-0.45 -1.79,-0.67 -1.71,-0.89 -1.58,-1.08 -1.45,-1.27 -1.27,-1.43 -1.10,-1.58 -0.89,-1.69 -0.69,-1.80 -0.46,-1.86 -0.23,-1.91 -0.00,-1.91 0.22,-1.92 0.45,-1.86 0.67,-1.81 0.88,-1.70 1.09,-1.59 1.26,-1.44 1.44,-1.28 1.57,-1.09 1.70,-0.90 1.79,-0.68 1.87,-0.46 1.87,-0.46 L 1.87,-0.46 Z"></path></g><g transform="translate(155.60003662109375 20.399993896484375) rotate(0 0 14.399993896484375)" stroke="none"><path fill="white" d="M 0.87,0.99 Q 0.87,0.99 -0.96,2.60 -2.80,4.21 -3.99,5.53 -5.18,6.85 -6.13,8.09 -7.09,9.32 -7.51,10.09 -7.93,10.87 -8.04,10.98 -8.15,11.09 -8.29,11.18 -8.42,11.26 -8.58,11.31 -8.73,11.36 -8.89,11.37 -9.05,11.38 -9.20,11.35 -9.36,11.32 -9.51,11.26 -9.65,11.19 -9.78,11.09 -9.91,11.00 -10.01,10.87 -10.10,10.75 -10.17,10.60 -10.24,10.45 -10.27,10.30 -10.30,10.14 -10.29,9.98 -10.28,9.82 -10.23,9.67 -10.18,9.52 -10.10,9.38 -10.02,9.24 -7.22,8.45 -4.42,7.65 -2.07,7.06 0.27,6.47 2.64,6.43 5.01,6.38 6.92,7.63 8.83,8.88 9.19,10.85 9.54,12.82 8.88,15.37 8.21,17.92 6.75,21.29 5.29,24.67 4.49,25.97 3.69,27.27 3.58,27.45 3.46,27.63 3.30,27.76 3.13,27.89 2.93,27.96 2.73,28.04 2.52,28.04 2.30,28.05 2.10,27.98 1.90,27.92 1.73,27.79 1.56,27.67 1.43,27.50 1.31,27.32 1.25,27.12 1.19,26.92 1.19,26.70 1.20,26.49 1.27,26.29 1.35,26.09 1.48,25.93 1.62,25.76 1.80,25.65 1.97,25.54 2.18,25.49 2.39,25.44 2.60,25.45 2.81,25.47 3.01,25.56 3.20,25.64 3.36,25.78 3.52,25.93 3.62,26.11 3.72,26.30 3.76,26.51 3.80,26.72 3.77,26.93 3.74,27.14 3.65,27.33 3.55,27.52 3.40,27.67 3.25,27.82 3.06,27.91 2.87,28.00 2.66,28.03 2.45,28.06 2.24,28.02 2.03,27.98 1.84,27.87 1.66,27.76 1.52,27.61 1.38,27.45 1.30,27.25 1.21,27.06 1.20,26.84 1.18,26.63 1.23,26.43 1.28,26.22 1.28,26.22 1.28,26.22 1.69,24.75 2.10,23.28 3.48,20.12 4.87,16.97 5.48,14.99 6.09,13.01 5.38,11.29 4.68,9.56 2.79,9.49 0.89,9.41 -1.37,9.83 -3.65,10.26 -5.79,10.56 -7.93,10.87 -8.04,10.98 -8.15,11.09 -8.29,11.18 -8.42,11.26 -8.58,11.31 -8.73,11.36 -8.89,11.37 -9.05,11.38 -9.20,11.35 -9.36,11.32 -9.51,11.26 -9.65,11.19 -9.78,11.09 -9.91,11.00 -10.01,10.87 -10.10,10.75 -10.17,10.60 -10.24,10.46 -10.27,10.30 -10.30,10.14 -10.29,9.98 -10.28,9.82 -10.23,9.67 -10.18,9.52 -10.10,9.38 -10.02,9.24 -9.60,8.47 -9.18,7.70 -8.16,6.39 -7.14,5.08 -5.84,3.65 -4.55,2.22 -2.71,0.61 -0.87,-0.99 -0.74,-1.08 -0.60,-1.17 -0.45,-1.23 -0.30,-1.28 -0.15,-1.30 0.00,-1.32 0.16,-1.30 0.32,-1.28 0.47,-1.22 0.62,-1.16 0.75,-1.07 0.88,-0.98 0.98,-0.86 1.09,-0.74 1.16,-0.60 1.24,-0.46 1.27,-0.30 1.31,-0.15 1.31,0.00 1.31,0.16 1.27,0.32 1.23,0.47 1.16,0.61 1.08,0.75 0.97,0.87 0.87,0.99 0.87,0.99 L 0.87,0.99 Z"></path></g><g transform="translate(30.800048828125 159.5999755859375) rotate(0 19.5999755859375 -0.3999786376953125)" stroke="none"><path fill="white" d="M 0,1.32 Q 0,1.32 -1.21,1.30 -2.43,1.28 -3.46,2.74 -4.49,4.20 -5.03,8.93 -5.57,13.66 -5.91,16.67 -6.25,19.69 -5.92,22.12 -5.58,24.56 -4.37,26.97 -3.16,29.37 -2.31,30.14 -1.46,30.91 -0.48,29.74 0.49,28.58 1.48,25.37 2.48,22.16 2.94,17.44 3.40,12.71 3.16,5.92 2.91,-0.85 1.91,-7.35 0.90,-13.85 -0.42,-18.61 -1.75,-23.36 -3.17,-26.16 -4.59,-28.96 -5.53,-30.25 -6.47,-31.55 -7.47,-32.00 -8.46,-32.45 -8.60,-32.69 -8.73,-32.93 -8.80,-33.19 -8.88,-33.46 -8.88,-33.73 -8.89,-34.01 -8.83,-34.27 -8.77,-34.54 -8.65,-34.79 -8.53,-35.03 -8.35,-35.24 -8.18,-35.45 -7.96,-35.61 -7.73,-35.78 -7.48,-35.88 -7.23,-35.98 -6.96,-36.02 -6.68,-36.06 -6.41,-36.04 -6.14,-36.01 -5.88,-35.92 -5.62,-35.83 -5.39,-35.68 -5.16,-35.53 -4.98,-35.33 -4.79,-35.13 -4.45,-30.98 -4.11,-26.83 -3.63,-24.14 -3.15,-21.45 -2.08,-18.60 -1.00,-15.75 0.83,-11.52 2.66,-7.30 4.91,-2.74 7.17,1.81 9.23,4.80 11.30,7.80 13.12,9.36 14.93,10.92 16.26,11.01 17.59,11.09 18.86,10.03 20.14,8.97 20.67,7.53 21.21,6.09 21.30,3.76 21.39,1.44 21.23,-1.43 21.07,-4.31 20.77,-5.94 20.48,-7.56 20.12,-8.52 19.76,-9.48 19.75,-9.68 19.73,-9.87 19.77,-10.06 19.80,-10.25 19.88,-10.43 19.96,-10.60 20.08,-10.76 20.20,-10.91 20.35,-11.03 20.50,-11.15 20.68,-11.23 20.85,-11.31 21.04,-11.34 21.23,-11.38 21.43,-11.37 21.62,-11.36 21.80,-11.30 21.99,-11.24 22.16,-11.14 22.32,-11.04 22.46,-10.91 22.60,-10.77 22.70,-10.61 22.80,-10.44 22.85,-10.26 22.91,-10.07 22.77,-8.42 22.62,-6.76 23.00,-5.04 23.38,-3.32 24.51,-1.92 25.63,-0.52 27.68,-0.05 29.73,0.40 31.56,0.21 33.38,0.02 35.01,-1.12 36.63,-2.26 37.84,-4.55 39.05,-6.84 39.57,-9.46 40.09,-12.08 39.67,-14.57 39.25,-17.05 38.25,-19.60 37.25,-22.14 36.19,-23.09 35.13,-24.04 33.50,-23.54 31.87,-23.05 30.28,-21.53 28.70,-20.01 27.62,-17.61 26.53,-15.20 26.23,-9.36 25.93,-3.52 26.22,-0.11 26.52,3.28 27.40,5.32 28.29,7.35 30.64,8.66 32.99,9.98 35.31,10.11 37.63,10.25 39.81,9.52 41.98,8.78 44.27,8.35 46.57,7.92 46.78,7.88 46.98,7.84 47.20,7.87 47.41,7.90 47.60,7.99 47.79,8.09 47.94,8.24 48.09,8.39 48.18,8.58 48.28,8.77 48.31,8.98 48.34,9.19 48.30,9.40 48.26,9.61 48.15,9.79 48.05,9.98 47.89,10.12 47.73,10.26 47.54,10.34 47.34,10.43 47.13,10.45 46.92,10.46 46.71,10.41 46.51,10.36 46.33,10.25 46.15,10.13 46.01,9.97 45.88,9.80 45.81,9.60 45.73,9.40 45.73,9.19 45.72,8.98 45.78,8.78 45.84,8.57 45.97,8.40 46.09,8.23 46.26,8.10 46.44,7.98 46.64,7.92 46.84,7.85 47.06,7.86 47.27,7.86 47.47,7.94 47.67,8.01 47.83,8.14 48.00,8.28 48.11,8.45 48.23,8.63 48.28,8.84 48.33,9.05 48.31,9.26 48.30,9.47 48.21,9.66 48.13,9.86 47.99,10.02 47.85,10.18 47.66,10.28 47.48,10.39 47.48,10.39 47.48,10.39 45.36,11.58 43.24,12.78 40.29,13.66 37.35,14.53 34.11,14.12 30.88,13.71 27.74,11.56 24.59,9.42 23.37,6.58 22.15,3.73 21.82,-0.01 21.49,-3.76 21.89,-10.43 22.29,-17.10 23.93,-20.32 25.58,-23.53 28.24,-25.50 30.91,-27.46 33.87,-27.59 36.84,-27.72 39.00,-25.81 41.17,-23.90 42.36,-20.79 43.54,-17.69 43.93,-14.45 44.32,-11.22 43.51,-7.96 42.70,-4.71 40.76,-1.83 38.83,1.03 36.31,2.31 33.79,3.59 31.28,3.68 28.77,3.77 26.02,2.74 23.26,1.70 21.75,-0.42 20.24,-2.55 19.84,-4.81 19.43,-7.06 19.60,-8.27 19.76,-9.48 19.75,-9.68 19.73,-9.87 19.77,-10.06 19.80,-10.25 19.88,-10.43 19.96,-10.60 20.08,-10.76 20.20,-10.91 20.35,-11.03 20.50,-11.15 20.68,-11.23 20.85,-11.31 21.04,-11.34 21.23,-11.38 21.43,-11.37 21.62,-11.36 21.80,-11.30 21.99,-11.24 22.16,-11.14 22.32,-11.04 22.46,-10.91 22.60,-10.77 22.70,-10.61 22.80,-10.44 22.85,-10.26 22.91,-10.07 23.28,-9.12 23.66,-8.16 24.00,-6.35 24.34,-4.55 24.61,-1.52 24.87,1.49 24.87,4.40 24.87,7.31 24.11,9.54 23.35,11.76 21.92,13.10 20.50,14.45 18.79,14.84 17.07,15.22 14.80,14.72 12.53,14.21 10.20,12.22 7.88,10.23 5.60,7.03 3.32,3.83 0.78,-0.77 -1.76,-5.38 -3.64,-9.73 -5.53,-14.08 -6.70,-17.36 -7.88,-20.63 -8.38,-23.68 -8.87,-26.73 -8.67,-29.59 -8.46,-32.45 -8.60,-32.69 -8.73,-32.93 -8.80,-33.19 -8.88,-33.46 -8.88,-33.73 -8.89,-34.01 -8.83,-34.27 -8.77,-34.54 -8.65,-34.79 -8.53,-35.03 -8.35,-35.24 -8.18,-35.45 -7.96,-35.61 -7.73,-35.78 -7.48,-35.88 -7.23,-35.98 -6.96,-36.02 -6.68,-36.06 -6.41,-36.04 -6.14,-36.01 -5.88,-35.92 -5.62,-35.83 -5.39,-35.68 -5.16,-35.53 -4.98,-35.33 -4.79,-35.13 -3.93,-34.76 -3.08,-34.40 -1.83,-32.68 -0.58,-30.97 0.98,-27.77 2.55,-24.58 3.94,-19.56 5.32,-14.54 6.36,-7.78 7.39,-1.01 7.64,6.07 7.88,13.17 7.32,18.37 6.76,23.58 5.35,27.51 3.94,31.45 2.15,33.08 0.37,34.72 -1.70,34.57 -3.77,34.43 -5.39,32.86 -7.01,31.28 -8.36,28.19 -9.70,25.09 -9.98,22.16 -10.25,19.23 -9.85,16.11 -9.45,12.99 -8.24,7.61 -7.04,2.23 -5.06,0.47 -3.08,-1.28 -1.54,-1.30 0,-1.32 0.15,-1.30 0.31,-1.28 0.46,-1.22 0.61,-1.17 0.74,-1.08 0.87,-0.99 0.98,-0.87 1.09,-0.75 1.16,-0.61 1.23,-0.46 1.27,-0.31 1.31,-0.15 1.31,0.00 1.31,0.15 1.27,0.31 1.23,0.46 1.16,0.61 1.08,0.75 0.98,0.87 0.87,0.99 0.74,1.08 0.61,1.17 0.46,1.22 0.31,1.28 0.15,1.30 -0.00,1.32 -0.00,1.32 L 0,1.32 Z"></path></g><g transform="translate(84.4000244140625 114.79998779296875) rotate(0 12 26)" stroke="none"><path fill="white" d="M 1.22,0.49 Q 1.22,0.49 0.77,1.63 0.31,2.78 1.16,5.78 2.02,8.78 3.80,11.28 5.58,13.77 8.43,16.84 11.28,19.92 14.08,22.32 16.88,24.71 19.32,27.17 21.75,29.63 23.40,32.71 25.05,35.79 25.39,39.01 25.74,42.23 24.37,45.32 22.99,48.42 20.93,50.12 18.87,51.82 16.66,51.73 14.46,51.64 14.24,51.62 14.03,51.61 13.84,51.52 13.64,51.44 13.48,51.30 13.32,51.16 13.22,50.97 13.11,50.79 13.07,50.58 13.03,50.37 13.05,50.16 13.08,49.95 13.18,49.76 13.27,49.57 13.42,49.42 13.57,49.27 13.76,49.17 13.95,49.08 14.16,49.05 14.37,49.02 14.58,49.05 14.78,49.09 14.97,49.20 15.16,49.30 15.30,49.46 15.44,49.61 15.53,49.81 15.61,50.00 15.63,50.22 15.65,50.43 15.60,50.63 15.55,50.84 15.44,51.02 15.32,51.20 15.16,51.33 14.99,51.47 14.79,51.54 14.60,51.62 14.38,51.62 14.17,51.63 13.97,51.57 13.76,51.51 13.59,51.39 13.42,51.26 13.29,51.09 13.17,50.92 13.10,50.72 13.04,50.52 13.04,50.30 13.05,50.09 13.12,49.89 13.19,49.69 13.32,49.52 13.46,49.36 13.63,49.24 13.81,49.13 14.02,49.07 14.23,49.02 14.22,49.02 14.22,49.02 15.39,48.63 16.56,48.24 17.92,47.29 19.27,46.33 20.53,44.26 21.78,42.18 21.80,39.74 21.83,37.29 20.56,34.61 19.29,31.94 17.03,29.51 14.77,27.09 11.93,24.48 9.09,21.88 6.24,18.60 3.39,15.32 1.50,12.60 -0.38,9.89 -1.49,7.23 -2.60,4.57 -2.37,3.19 -2.15,1.81 -1.69,0.66 -1.22,-0.49 -1.15,-0.63 -1.07,-0.77 -0.96,-0.88 -0.86,-1.00 -0.72,-1.09 -0.59,-1.18 -0.44,-1.23 -0.29,-1.29 -0.13,-1.30 0.02,-1.32 0.18,-1.30 0.34,-1.28 0.48,-1.22 0.63,-1.16 0.76,-1.06 0.89,-0.97 0.99,-0.85 1.10,-0.73 1.17,-0.58 1.24,-0.44 1.28,-0.29 1.31,-0.13 1.31,0.02 1.31,0.18 1.27,0.33 1.22,0.49 1.22,0.49 L 1.22,0.49 Z"></path></g><g transform="translate(90.800048828125 147.60000610351562) rotate(0 26.399993896484375 -15.20001220703125)" stroke="none"><path fill="white" d="M -0.59,-1.18 Q -0.59,-1.18 3.08,-3.02 6.76,-4.86 10.13,-6.77 13.51,-8.69 16.48,-11.06 19.45,-13.44 22.35,-15.84 25.25,-18.25 27.64,-20.20 30.03,-22.14 31.14,-22.87 32.25,-23.59 32.17,-24.42 32.08,-25.25 32.21,-25.35 32.33,-25.45 32.47,-25.52 32.62,-25.58 32.77,-25.62 32.93,-25.65 33.09,-25.64 33.25,-25.63 33.40,-25.59 33.56,-25.54 33.69,-25.46 33.83,-25.38 33.95,-25.27 34.06,-25.16 34.15,-25.03 34.23,-24.89 34.28,-24.74 34.33,-24.59 34.34,-24.43 34.36,-24.27 34.33,-24.11 34.30,-23.95 34.24,-23.81 34.18,-23.66 34.08,-23.53 33.99,-23.41 32.61,-21.33 31.24,-19.26 30.21,-17.05 29.19,-14.84 28.54,-12.36 27.89,-9.89 27.84,-7.85 27.79,-5.81 28.50,-4.81 29.21,-3.80 30.39,-3.68 31.57,-3.55 33.00,-4.10 34.43,-4.64 35.79,-6.11 37.15,-7.59 38.21,-10.20 39.28,-12.81 39.46,-15.95 39.64,-19.10 39.76,-21.66 39.87,-24.23 39.84,-25.33 39.80,-26.43 38.78,-22.99 37.76,-19.54 37.27,-14.91 36.78,-10.27 36.81,-7.85 36.85,-5.42 36.67,-4.33 36.49,-3.25 37.19,-4.42 37.88,-5.60 38.03,-7.41 38.17,-9.22 38.48,-11.94 38.79,-14.66 39.16,-17.44 39.53,-20.22 40.62,-22.67 41.72,-25.12 43.52,-25.21 45.33,-25.30 46.79,-23.08 48.25,-20.86 49.21,-17.96 50.16,-15.07 50.97,-12.78 51.78,-10.49 52.60,-8.42 53.42,-6.35 53.49,-6.15 53.56,-5.95 53.57,-5.74 53.58,-5.53 53.52,-5.33 53.46,-5.12 53.33,-4.95 53.21,-4.78 53.04,-4.65 52.87,-4.53 52.67,-4.46 52.46,-4.40 52.25,-4.40 52.04,-4.41 51.84,-4.48 51.64,-4.55 51.47,-4.68 51.30,-4.81 51.19,-4.99 51.07,-5.17 51.02,-5.38 50.97,-5.58 50.98,-5.79 51.00,-6.01 51.08,-6.20 51.16,-6.40 51.31,-6.56 51.45,-6.72 51.63,-6.82 51.82,-6.93 52.02,-6.97 52.23,-7.01 52.44,-6.98 52.65,-6.96 52.84,-6.86 53.04,-6.77 53.19,-6.62 53.34,-6.47 53.43,-6.28 53.53,-6.09 53.56,-5.88 53.59,-5.67 53.55,-5.46 53.51,-5.25 53.41,-5.07 53.31,-4.88 53.15,-4.74 52.99,-4.60 52.80,-4.51 52.60,-4.43 52.39,-4.41 52.18,-4.39 51.97,-4.44 51.77,-4.49 51.59,-4.60 51.41,-4.71 51.27,-4.88 51.14,-5.04 51.14,-5.04 51.14,-5.04 49.60,-7.07 48.07,-9.09 47.16,-11.40 46.25,-13.71 45.32,-16.21 44.39,-18.72 44.40,-20.43 44.41,-22.14 44.24,-20.85 44.07,-19.55 43.64,-16.78 43.21,-14.01 42.70,-11.23 42.19,-8.45 41.51,-5.98 40.83,-3.52 39.58,-2.21 38.33,-0.91 36.51,-1.38 34.69,-1.86 34.02,-3.56 33.35,-5.27 33.25,-7.91 33.15,-10.56 33.43,-15.69 33.71,-20.82 34.73,-24.05 35.75,-27.27 37.27,-28.68 38.78,-30.08 40.87,-29.55 42.95,-29.02 43.70,-26.51 44.45,-24.00 44.26,-21.32 44.06,-18.63 43.51,-14.84 42.95,-11.04 41.21,-8.15 39.46,-5.26 37.45,-3.52 35.44,-1.78 33.26,-1.26 31.09,-0.73 29.21,-1.35 27.33,-1.97 26.26,-3.80 25.18,-5.63 25.25,-8.09 25.33,-10.55 26.06,-13.25 26.78,-15.95 27.91,-18.34 29.03,-20.73 30.56,-22.99 32.08,-25.25 32.20,-25.35 32.33,-25.45 32.47,-25.52 32.62,-25.58 32.77,-25.62 32.93,-25.65 33.09,-25.64 33.25,-25.63 33.40,-25.59 33.56,-25.54 33.69,-25.46 33.83,-25.38 33.95,-25.27 34.06,-25.16 34.15,-25.03 34.23,-24.89 34.28,-24.74 34.33,-24.59 34.34,-24.43 34.36,-24.27 34.33,-24.11 34.30,-23.95 34.24,-23.81 34.18,-23.66 34.08,-23.53 33.99,-23.41 34.22,-23.60 34.46,-23.80 33.08,-21.95 31.71,-20.09 29.32,-18.15 26.94,-16.21 24.02,-13.79 21.10,-11.36 17.96,-8.88 14.82,-6.39 11.38,-4.44 7.95,-2.49 4.27,-0.65 0.59,1.18 0.44,1.23 0.29,1.29 0.13,1.30 -0.02,1.32 -0.18,1.30 -0.34,1.27 -0.49,1.21 -0.63,1.16 -0.76,1.06 -0.89,0.97 -1.00,0.85 -1.10,0.73 -1.17,0.58 -1.24,0.44 -1.28,0.28 -1.31,0.13 -1.31,-0.02 -1.31,-0.18 -1.27,-0.33 -1.22,-0.49 -1.15,-0.63 -1.07,-0.77 -0.96,-0.89 -0.85,-1.00 -0.72,-1.09 -0.59,-1.18 -0.59,-1.18 L -0.59,-1.18 Z"></path></g><g transform="translate(145.20001220703125 119.60000610351562) rotate(0 14 1.199981689453125)" stroke="none"><path fill="white" d="M 1.21,-0.53 Q 1.21,-0.53 2.13,1.53 3.05,3.60 4.13,6.34 5.22,9.07 6.52,10.77 7.81,12.46 9.16,13.53 10.52,14.60 11.18,13.38 11.84,12.16 11.36,7.94 10.89,3.71 10.71,0.82 10.54,-2.06 10.24,-4.84 9.93,-7.63 9.79,-9.80 9.65,-11.97 9.81,-12.86 9.97,-13.76 9.99,-13.97 10.00,-14.18 10.06,-14.38 10.13,-14.59 10.24,-14.77 10.35,-14.95 10.50,-15.10 10.65,-15.25 10.83,-15.36 11.01,-15.47 11.21,-15.53 11.42,-15.60 11.63,-15.61 11.84,-15.62 12.05,-15.59 12.26,-15.55 12.45,-15.46 12.65,-15.37 12.82,-15.24 12.98,-15.11 13.12,-14.94 13.25,-14.77 13.33,-14.58 13.42,-14.39 13.46,-14.18 13.50,-13.97 14.60,-10.45 15.69,-6.94 16.73,-3.73 17.77,-0.52 19.09,2.87 20.41,6.26 21.84,9.02 23.26,11.78 25.60,13.56 27.95,15.35 28.13,15.46 28.31,15.58 28.44,15.74 28.58,15.91 28.65,16.11 28.72,16.31 28.73,16.52 28.74,16.73 28.67,16.93 28.61,17.14 28.49,17.31 28.37,17.48 28.19,17.61 28.02,17.73 27.82,17.79 27.61,17.86 27.40,17.85 27.19,17.85 26.99,17.77 26.79,17.70 26.62,17.57 26.46,17.43 26.34,17.26 26.23,17.08 26.18,16.87 26.13,16.66 26.14,16.45 26.16,16.24 26.24,16.05 26.33,15.85 26.47,15.69 26.61,15.53 26.79,15.43 26.98,15.32 27.19,15.28 27.40,15.24 27.61,15.27 27.82,15.30 28.01,15.39 28.20,15.49 28.35,15.64 28.50,15.79 28.59,15.98 28.69,16.17 28.72,16.38 28.75,16.59 28.71,16.80 28.67,17.01 28.56,17.19 28.46,17.38 28.30,17.52 28.14,17.66 27.95,17.75 27.75,17.83 27.54,17.85 27.33,17.86 27.12,17.81 26.92,17.76 26.92,17.76 26.92,17.76 23.61,15.59 20.30,13.41 18.73,10.48 17.15,7.55 15.75,4.06 14.35,0.57 13.31,-2.66 12.27,-5.91 11.46,-8.63 10.64,-11.35 10.31,-12.55 9.97,-13.76 9.99,-13.97 10.00,-14.18 10.06,-14.38 10.13,-14.59 10.24,-14.77 10.35,-14.95 10.50,-15.10 10.65,-15.25 10.83,-15.36 11.01,-15.47 11.21,-15.53 11.42,-15.60 11.63,-15.61 11.84,-15.62 12.05,-15.59 12.26,-15.55 12.45,-15.46 12.65,-15.37 12.82,-15.24 12.98,-15.11 13.11,-14.94 13.25,-14.77 13.33,-14.58 13.42,-14.39 13.46,-14.18 13.50,-13.97 13.31,-13.06 13.12,-12.15 13.23,-10.07 13.35,-8.00 13.65,-5.13 13.94,-2.26 14.11,0.58 14.27,3.42 14.58,8.36 14.89,13.30 13.87,15.07 12.86,16.83 10.94,16.87 9.02,16.91 7.36,15.49 5.70,14.07 4.24,12.07 2.77,10.07 1.70,7.37 0.62,4.67 -0.29,2.60 -1.21,0.53 -1.25,0.38 -1.30,0.23 -1.31,0.07 -1.32,-0.08 -1.29,-0.24 -1.26,-0.39 -1.19,-0.54 -1.13,-0.69 -1.03,-0.81 -0.93,-0.94 -0.80,-1.03 -0.67,-1.13 -0.53,-1.20 -0.38,-1.26 -0.23,-1.29 -0.07,-1.32 0.08,-1.31 0.24,-1.30 0.39,-1.25 0.54,-1.20 0.68,-1.12 0.82,-1.03 0.93,-0.92 1.04,-0.81 1.12,-0.67 1.21,-0.53 1.21,-0.53 L 1.21,-0.53 Z"></path></g><g transform="translate(173.20001220703125 90) rotate(0 9.20001220703125 20.800003051757812)" stroke="none"><path fill="white" d="M 1.65,-0.73 Q 1.65,-0.73 2.54,1.34 3.43,3.43 4.92,6.85 6.41,10.28 7.98,14.55 9.54,18.82 11.11,22.91 12.67,27.00 14.01,30.34 15.36,33.68 17.04,36.64 18.72,39.59 18.80,39.79 18.88,39.99 18.89,40.20 18.90,40.41 18.85,40.61 18.79,40.82 18.67,41.00 18.55,41.17 18.38,41.30 18.21,41.43 18.01,41.50 17.81,41.56 17.60,41.56 17.38,41.56 17.18,41.50 16.98,41.43 16.81,41.30 16.64,41.17 16.52,40.99 16.40,40.82 16.35,40.61 16.29,40.41 16.30,40.20 16.31,39.98 16.39,39.79 16.47,39.59 16.61,39.43 16.75,39.27 16.93,39.16 17.11,39.05 17.32,39.00 17.53,38.96 17.74,38.98 17.95,39.00 18.14,39.09 18.33,39.18 18.49,39.33 18.64,39.47 18.74,39.66 18.84,39.85 18.88,40.06 18.91,40.27 18.88,40.48 18.84,40.69 18.74,40.88 18.64,41.06 18.49,41.21 18.33,41.36 18.14,41.44 17.95,41.53 17.74,41.56 17.53,41.58 17.32,41.53 17.11,41.49 16.93,41.38 16.75,41.27 16.61,41.11 16.47,40.94 16.47,40.94 16.47,40.94 14.53,37.88 12.60,34.81 11.21,31.46 9.82,28.11 8.21,24.01 6.59,19.92 5.01,15.78 3.42,11.63 1.83,8.24 0.24,4.84 -0.70,2.79 -1.65,0.73 -1.72,0.52 -1.78,0.31 -1.79,0.10 -1.81,-0.11 -1.77,-0.33 -1.73,-0.54 -1.63,-0.74 -1.54,-0.94 -1.41,-1.11 -1.27,-1.28 -1.10,-1.42 -0.93,-1.55 -0.73,-1.64 -0.53,-1.73 -0.31,-1.77 -0.10,-1.81 0.11,-1.79 0.33,-1.78 0.54,-1.71 0.75,-1.65 0.93,-1.53 1.12,-1.42 1.27,-1.26 1.43,-1.11 1.54,-0.92 1.65,-0.73 1.65,-0.73 L 1.65,-0.73 Z"></path></g><g transform="translate(200.40008544921875 90.79998779296875) rotate(0 9.199951171875 10.800003051757812)" stroke="none"><path fill="white" d="M 1.59,-0.79 Q 1.59,-0.79 2.68,1.53 3.78,3.85 4.92,5.96 6.06,8.07 8.14,11.48 10.22,14.89 11.14,16.63 12.06,18.36 12.19,18.86 12.32,19.36 12.39,19.53 12.46,19.70 12.48,19.88 12.50,20.07 12.48,20.25 12.46,20.43 12.39,20.61 12.33,20.78 12.23,20.93 12.12,21.08 11.98,21.21 11.85,21.33 11.68,21.42 11.52,21.50 11.34,21.55 11.16,21.59 10.98,21.59 10.79,21.59 10.61,21.55 10.44,21.51 10.27,21.42 10.11,21.34 9.97,21.22 9.83,21.09 9.72,20.94 9.62,20.79 7.21,19.35 4.80,17.92 3.24,17.04 1.67,16.17 -0.03,15.61 -1.73,15.05 -3.09,14.82 -4.45,14.58 -5.55,14.70 -6.64,14.81 -6.80,14.76 -6.96,14.71 -7.11,14.63 -7.26,14.54 -7.38,14.42 -7.50,14.30 -7.59,14.15 -7.68,14.01 -7.73,13.85 -7.78,13.68 -7.80,13.51 -7.81,13.34 -7.78,13.17 -7.75,13.01 -7.68,12.85 -7.61,12.69 -7.51,12.56 -7.40,12.42 -7.27,12.32 -7.13,12.21 -6.98,12.14 -6.82,12.07 -6.66,12.03 -6.49,12.00 -6.32,12.01 -6.15,12.02 -4.46,11.77 -2.77,11.51 -0.01,11.03 2.74,10.55 6.20,9.66 9.65,8.77 14.05,7.02 18.45,5.28 21.48,3.95 24.51,2.62 24.71,2.56 24.92,2.50 25.13,2.52 25.34,2.53 25.54,2.61 25.73,2.69 25.90,2.83 26.06,2.96 26.17,3.15 26.28,3.33 26.32,3.54 26.37,3.74 26.34,3.95 26.32,4.17 26.23,4.36 26.14,4.55 25.99,4.70 25.84,4.86 25.66,4.96 25.47,5.06 25.26,5.09 25.05,5.12 24.84,5.09 24.63,5.05 24.44,4.95 24.25,4.85 24.11,4.70 23.96,4.54 23.88,4.35 23.79,4.16 23.76,3.95 23.74,3.73 23.79,3.53 23.84,3.32 23.95,3.14 24.06,2.96 24.22,2.82 24.38,2.68 24.58,2.60 24.78,2.53 24.99,2.52 25.20,2.50 25.40,2.56 25.61,2.62 25.78,2.74 25.96,2.86 26.09,3.03 26.22,3.20 26.28,3.40 26.35,3.60 26.35,3.81 26.35,4.03 26.28,4.23 26.21,4.43 26.08,4.60 25.95,4.77 25.78,4.89 25.60,5.00 25.60,5.00 25.60,5.00 22.54,6.46 19.49,7.92 14.92,9.70 10.35,11.48 6.78,12.39 3.22,13.29 0.28,13.80 -2.66,14.30 -4.65,14.56 -6.64,14.81 -6.80,14.76 -6.96,14.71 -7.11,14.63 -7.26,14.54 -7.38,14.42 -7.50,14.30 -7.59,14.15 -7.68,14.01 -7.73,13.85 -7.78,13.68 -7.80,13.51 -7.81,13.34 -7.78,13.17 -7.75,13.01 -7.68,12.85 -7.61,12.69 -7.51,12.56 -7.40,12.42 -7.27,12.32 -7.14,12.21 -6.98,12.14 -6.82,12.07 -6.66,12.03 -6.49,12.00 -6.32,12.01 -6.15,12.02 -5.07,11.90 -3.99,11.77 -2.42,12.05 -0.84,12.33 1.11,12.98 3.06,13.63 4.71,14.52 6.35,15.41 7.98,16.40 9.62,17.40 10.97,18.38 12.32,19.36 12.39,19.53 12.46,19.70 12.48,19.88 12.50,20.07 12.48,20.25 12.46,20.43 12.39,20.61 12.33,20.78 12.23,20.93 12.12,21.08 11.98,21.21 11.85,21.33 11.68,21.42 11.52,21.50 11.34,21.55 11.16,21.59 10.98,21.59 10.79,21.59 10.61,21.55 10.44,21.51 10.27,21.42 10.11,21.34 9.97,21.22 9.83,21.09 9.72,20.94 9.62,20.79 9.45,20.31 9.28,19.83 8.40,18.19 7.53,16.54 5.39,13.09 3.24,9.63 2.02,7.49 0.81,5.34 -0.38,3.06 -1.59,0.79 -1.66,0.59 -1.73,0.39 -1.75,0.17 -1.77,-0.03 -1.74,-0.24 -1.71,-0.45 -1.63,-0.65 -1.55,-0.85 -1.43,-1.03 -1.30,-1.20 -1.14,-1.34 -0.98,-1.48 -0.78,-1.57 -0.59,-1.67 -0.38,-1.72 -0.17,-1.77 0.03,-1.76 0.24,-1.76 0.45,-1.70 0.66,-1.65 0.85,-1.54 1.03,-1.44 1.19,-1.29 1.35,-1.15 1.47,-0.97 1.59,-0.79 1.59,-0.79 L 1.59,-0.79 Z"></path></g></svg>